<svg xmlns="http://www.w3.org/2000/svg" width="82px" viewBox="0 0 609 318" style="shape-rendering:geometricPrecision; text-rendering:geometricPrecision; image-rendering:optimizeQuality; fill-rule:evenodd; clip-rule:evenodd">
<g><path style="opacity:1" fill="#e9e9e9" d="M 107.5,77.5 C 104.833,77.5 102.167,77.5 99.5,77.5C 98.2498,75.0676 96.7498,72.7343 95,70.5C 93.6369,58.8635 98.4702,55.0302 109.5,59C 112.318,62.3379 113.151,66.1712 112,70.5C 110.25,72.7343 108.75,75.0676 107.5,77.5 Z"/></g>
<g><path style="opacity:1" fill="#e9e9e9" d="M 331.5,77.5 C 299.167,77.5 266.833,77.5 234.5,77.5C 234.5,71.8333 234.5,66.1667 234.5,60.5C 251.837,60.3334 269.17,60.5001 286.5,61C 299.252,60.4566 311.252,63.1233 322.5,69C 326,71.3342 329,74.1675 331.5,77.5 Z"/></g>
<g><path style="opacity:1" fill="#e8e8e8" d="M 404.5,77.5 C 400.167,77.5 395.833,77.5 391.5,77.5C 392.073,72.1535 392.74,66.8202 393.5,61.5C 395.144,61.2865 396.644,61.6198 398,62.5C 400.179,67.5215 402.346,72.5215 404.5,77.5 Z"/></g>
<g><path style="opacity:1" fill="#e8e8e8" d="M 542.5,77.5 C 537.833,77.5 533.167,77.5 528.5,77.5C 531.02,72.6147 533.354,67.6147 535.5,62.5C 537.045,61.5481 538.712,61.2148 540.5,61.5C 540.701,66.9065 541.368,72.2399 542.5,77.5 Z"/></g>
<g><path style="opacity:1" fill="#e7e8e7" d="M 134.5,77.5 C 129.167,77.5 123.833,77.5 118.5,77.5C 122.1,72.4311 126.767,71.2645 132.5,74C 133.823,74.8159 134.489,75.9826 134.5,77.5 Z"/></g>
<g><path style="opacity:1" fill="#e4e4e4" d="M 49.5,103.5 C 46.8333,103.5 44.1667,103.5 41.5,103.5C 42.5518,98.4624 41.0518,94.4624 37,91.5C 34.1902,83.1692 37.0235,78.1692 45.5,76.5C 53.6054,79.0485 56.1054,84.3818 53,92.5C 49.8267,95.4225 48.66,99.0892 49.5,103.5 Z"/></g>
<g><path style="opacity:1" fill="#e4e4e4" d="M 99.5,77.5 C 102.167,77.5 104.833,77.5 107.5,77.5C 107.5,86.1667 107.5,94.8333 107.5,103.5C 103.5,103.5 99.5,103.5 95.5,103.5C 96.4577,102.038 97.6244,100.705 99,99.5C 99.4997,92.1742 99.6663,84.8409 99.5,77.5 Z"/></g>
<g><path style="opacity:1" fill="#e4e4e4" d="M 118.5,77.5 C 123.833,77.5 129.167,77.5 134.5,77.5C 136.541,82.8701 135.375,87.5367 131,91.5C 130.501,95.4862 130.334,99.4862 130.5,103.5C 127.833,103.5 125.167,103.5 122.5,103.5C 122.666,99.1539 122.499,94.8206 122,90.5C 117.668,86.9959 116.502,82.6626 118.5,77.5 Z"/></g>
<g><path style="opacity:1" fill="#e4e4e4" d="M 234.5,77.5 C 266.833,77.5 299.167,77.5 331.5,77.5C 338.422,84.6888 342.088,93.3554 342.5,103.5C 336.167,103.5 329.833,103.5 323.5,103.5C 320.141,88.6466 310.807,80.8133 295.5,80C 281.171,79.5001 266.837,79.3334 252.5,79.5C 252.5,87.5 252.5,95.5 252.5,103.5C 246.5,103.5 240.5,103.5 234.5,103.5C 234.5,94.8333 234.5,86.1667 234.5,77.5 Z"/></g>
<g><path style="opacity:1" fill="#e3e3e3" d="M 391.5,77.5 C 395.833,77.5 400.167,77.5 404.5,77.5C 409.01,85.8582 413.01,94.5249 416.5,103.5C 407.167,103.5 397.833,103.5 388.5,103.5C 389.063,94.7662 390.063,86.0995 391.5,77.5 Z"/></g>
<g><path style="opacity:1" fill="#e3e3e3" d="M 528.5,77.5 C 533.167,77.5 537.833,77.5 542.5,77.5C 543.646,86.149 544.646,94.8156 545.5,103.5C 535.833,103.5 526.167,103.5 516.5,103.5C 520.694,94.918 524.694,86.2514 528.5,77.5 Z"/></g>
<g><path style="opacity:1" fill="#dddddd" d="M 41.5,103.5 C 44.1667,103.5 46.8333,103.5 49.5,103.5C 55.5374,109.535 61.204,115.869 66.5,122.5C 62.8333,122.5 59.1667,122.5 55.5,122.5C 50.5032,118.336 46.0032,113.669 42,108.5C 41.5065,106.866 41.3398,105.199 41.5,103.5 Z"/></g>
<g><path style="opacity:1" fill="#dddddd" d="M 95.5,103.5 C 99.5,103.5 103.5,103.5 107.5,103.5C 101.722,110.066 95.7221,116.4 89.5,122.5C 85.5,122.5 81.5,122.5 77.5,122.5C 83.5278,116.14 89.5278,109.807 95.5,103.5 Z"/></g>
<g><path style="opacity:1" fill="#dddddd" d="M 122.5,103.5 C 125.167,103.5 127.833,103.5 130.5,103.5C 130.665,107.182 130.499,110.848 130,114.5C 127.715,117.432 125.215,120.098 122.5,122.5C 118.5,122.5 114.5,122.5 110.5,122.5C 114.13,118.369 117.963,114.369 122,110.5C 122.497,108.19 122.663,105.857 122.5,103.5 Z"/></g>
<g><path style="opacity:1" fill="#dddddd" d="M 234.5,103.5 C 240.5,103.5 246.5,103.5 252.5,103.5C 252.5,109.833 252.5,116.167 252.5,122.5C 246.5,122.5 240.5,122.5 234.5,122.5C 234.5,116.167 234.5,109.833 234.5,103.5 Z"/></g>
<g><path style="opacity:1" fill="#dddddd" d="M 323.5,103.5 C 329.833,103.5 336.167,103.5 342.5,103.5C 343.57,110.011 343.237,116.345 341.5,122.5C 335.167,122.5 328.833,122.5 322.5,122.5C 324.553,116.217 324.886,109.884 323.5,103.5 Z"/></g>
<g><path style="opacity:1" fill="#dddddd" d="M 388.5,103.5 C 397.833,103.5 407.167,103.5 416.5,103.5C 419.739,109.648 422.739,115.981 425.5,122.5C 419.167,122.5 412.833,122.5 406.5,122.5C 405.347,120.193 404.18,117.86 403,115.5C 402.503,117.81 402.337,120.143 402.5,122.5C 396.833,122.5 391.167,122.5 385.5,122.5C 386.051,115.964 387.051,109.631 388.5,103.5 Z"/></g>
<g><path style="opacity:1" fill="#dddddd" d="M 516.5,103.5 C 526.167,103.5 535.833,103.5 545.5,103.5C 546.592,109.81 547.592,116.144 548.5,122.5C 542.833,122.5 537.167,122.5 531.5,122.5C 530.798,114.503 529.465,114.503 527.5,122.5C 521.167,122.5 514.833,122.5 508.5,122.5C 510.891,116.051 513.558,109.718 516.5,103.5 Z"/></g>
<g><path style="opacity:1" fill="#dadbda" d="M 152.5,122.5 C 147.833,122.5 143.167,122.5 138.5,122.5C 141.55,119.647 145.217,118.813 149.5,120C 150.942,120.377 151.942,121.21 152.5,122.5 Z"/></g>
<g><path style="opacity:1" fill="#d8d8d8" d="M 55.5,122.5 C 59.1667,122.5 62.8333,122.5 66.5,122.5C 68.4807,124.144 70.4807,125.81 72.5,127.5C 74.1877,125.812 75.8543,124.146 77.5,122.5C 81.5,122.5 85.5,122.5 89.5,122.5C 85.4757,127.846 80.9757,132.846 76,137.5C 75.5172,138.448 75.3505,139.448 75.5,140.5C 72.8333,140.5 70.1667,140.5 67.5,140.5C 67.6602,138.801 67.4935,137.134 67,135.5C 62.6889,131.511 58.8555,127.177 55.5,122.5 Z"/></g>
<g><path style="opacity:1" fill="#d7d7d7" d="M 110.5,122.5 C 114.5,122.5 118.5,122.5 122.5,122.5C 119.522,125.813 116.522,129.147 113.5,132.5C 115.856,135.186 118.189,137.853 120.5,140.5C 116.833,140.5 113.167,140.5 109.5,140.5C 106.442,138.444 104.109,135.777 102.5,132.5C 104.694,128.773 107.361,125.44 110.5,122.5 Z"/></g>
<g><path style="opacity:1" fill="#d7d7d7" d="M 138.5,122.5 C 143.167,122.5 147.833,122.5 152.5,122.5C 154.958,126.616 155.124,130.95 153,135.5C 148.909,137.529 144.742,139.196 140.5,140.5C 136.833,140.5 133.167,140.5 129.5,140.5C 131.051,137.437 133.218,134.771 136,132.5C 136.146,128.942 136.979,125.609 138.5,122.5 Z"/></g>
<g><path style="opacity:1" fill="#d7d7d7" d="M 234.5,122.5 C 240.5,122.5 246.5,122.5 252.5,122.5C 252.5,128.5 252.5,134.5 252.5,140.5C 246.5,140.5 240.5,140.5 234.5,140.5C 234.5,134.5 234.5,128.5 234.5,122.5 Z"/></g>
<g><path style="opacity:1" fill="#d7d7d7" d="M 322.5,122.5 C 328.833,122.5 335.167,122.5 341.5,122.5C 340.946,129.514 338.28,135.514 333.5,140.5C 323.167,140.5 312.833,140.5 302.5,140.5C 312.034,137.63 318.7,131.63 322.5,122.5 Z"/></g>
<g><path style="opacity:1" fill="#d7d7d7" d="M 385.5,122.5 C 391.167,122.5 396.833,122.5 402.5,122.5C 401.661,128.551 400.661,134.551 399.5,140.5C 394.167,140.5 388.833,140.5 383.5,140.5C 383.803,134.442 384.469,128.442 385.5,122.5 Z"/></g>
<g><path style="opacity:1" fill="#d7d7d7" d="M 406.5,122.5 C 412.833,122.5 419.167,122.5 425.5,122.5C 428.713,128.26 431.38,134.26 433.5,140.5C 427.167,140.5 420.833,140.5 414.5,140.5C 411.836,134.504 409.169,128.504 406.5,122.5 Z"/></g>
<g><path style="opacity:1" fill="#d7d7d7" d="M 508.5,122.5 C 514.833,122.5 521.167,122.5 527.5,122.5C 524.467,128.565 521.467,134.565 518.5,140.5C 512.5,140.5 506.5,140.5 500.5,140.5C 502.65,134.206 505.316,128.206 508.5,122.5 Z"/></g>
<g><path style="opacity:1" fill="#d7d7d7" d="M 531.5,122.5 C 537.167,122.5 542.833,122.5 548.5,122.5C 549.331,128.479 549.997,134.479 550.5,140.5C 544.833,140.5 539.167,140.5 533.5,140.5C 532.182,134.617 531.515,128.617 531.5,122.5 Z"/></g>
<g><path style="opacity:1" fill="#d1d1d1" d="M 67.5,140.5 C 70.1667,140.5 72.8333,140.5 75.5,140.5C 75.5,146.167 75.5,151.833 75.5,157.5C 72.8333,157.5 70.1667,157.5 67.5,157.5C 67.5,151.833 67.5,146.167 67.5,140.5 Z"/></g>
<g><path style="opacity:1" fill="#d2d2d2" d="M 109.5,140.5 C 113.167,140.5 116.833,140.5 120.5,140.5C 122.129,141.625 123.629,142.959 125,144.5C 126.371,142.959 127.871,141.625 129.5,140.5C 133.167,140.5 136.833,140.5 140.5,140.5C 136.836,144.332 133.336,148.332 130,152.5C 129.506,154.134 129.34,155.801 129.5,157.5C 126.5,157.5 123.5,157.5 120.5,157.5C 120.66,155.801 120.494,154.134 120,152.5C 115.918,148.924 112.418,144.924 109.5,140.5 Z"/></g>
<g><path style="opacity:1" fill="#d1d1d1" d="M 234.5,140.5 C 240.5,140.5 246.5,140.5 252.5,140.5C 269.024,143.121 285.69,143.121 302.5,140.5C 312.833,140.5 323.167,140.5 333.5,140.5C 329.506,147.182 323.839,152.016 316.5,155C 313.28,156.352 309.947,157.186 306.5,157.5C 282.5,157.5 258.5,157.5 234.5,157.5C 234.5,151.833 234.5,146.167 234.5,140.5 Z"/></g>
<g><path style="opacity:1" fill="#d1d1d1" d="M 383.5,140.5 C 388.833,140.5 394.167,140.5 399.5,140.5C 399.079,146.202 398.412,151.869 397.5,157.5C 391.833,157.5 386.167,157.5 380.5,157.5C 381.225,151.753 382.225,146.086 383.5,140.5 Z"/></g>
<g><path style="opacity:1" fill="#d1d1d1" d="M 414.5,140.5 C 420.833,140.5 427.167,140.5 433.5,140.5C 436.537,145.918 439.203,151.584 441.5,157.5C 435.167,157.5 428.833,157.5 422.5,157.5C 420.106,151.713 417.44,146.046 414.5,140.5 Z"/></g>
<g><path style="opacity:1" fill="#d1d1d1" d="M 500.5,140.5 C 506.5,140.5 512.5,140.5 518.5,140.5C 516.589,146.587 513.923,152.253 510.5,157.5C 504.5,157.5 498.5,157.5 492.5,157.5C 494.384,151.402 497.051,145.735 500.5,140.5 Z"/></g>
<g><path style="opacity:1" fill="#d1d1d1" d="M 533.5,140.5 C 539.167,140.5 544.833,140.5 550.5,140.5C 551.41,146.208 552.41,151.874 553.5,157.5C 547.5,157.5 541.5,157.5 535.5,157.5C 534.646,151.858 533.98,146.191 533.5,140.5 Z"/></g>
<g><path style="opacity:0.99" fill="#d0d0d0" d="M 167.5,157.5 C 161.167,157.5 154.833,157.5 148.5,157.5C 151.034,154.396 152.201,150.729 152,146.5C 157.333,141.167 162.667,141.167 168,146.5C 169.709,150.227 169.542,153.893 167.5,157.5 Z"/></g>
<g><path style="opacity:1" fill="#d0d0d0" d="M 60.5,157.5 C 54.1667,157.5 47.8333,157.5 41.5,157.5C 40.157,147.342 44.4904,143.175 54.5,145C 55.6667,146.167 56.8333,147.333 58,148.5C 58.0566,151.811 58.8899,154.811 60.5,157.5 Z"/></g>
<g><path style="opacity:1" fill="#cfcfcf" d="M 103.5,157.5 C 97.8333,157.5 92.1667,157.5 86.5,157.5C 89.5374,152.745 93.8708,151.245 99.5,153C 101.041,154.371 102.375,155.871 103.5,157.5 Z"/></g>
<g><path style="opacity:1" fill="#cbcbcb" d="M 41.5,157.5 C 47.8333,157.5 54.1667,157.5 60.5,157.5C 62.433,159.937 64.5997,162.271 67,164.5C 67.4966,162.19 67.6633,159.857 67.5,157.5C 70.1667,157.5 72.8333,157.5 75.5,157.5C 75.334,162.844 75.5006,168.177 76,173.5C 77.0946,174.693 77.928,176.027 78.5,177.5C 74.8333,177.5 71.1667,177.5 67.5,177.5C 62.7021,173.203 58.0355,168.703 53.5,164C 47.7906,164.651 43.7906,162.484 41.5,157.5 Z"/></g>
<g><path style="opacity:1" fill="#cbcbcb" d="M 86.5,157.5 C 92.1667,157.5 97.8333,157.5 103.5,157.5C 103.335,160.518 103.502,163.518 104,166.5C 107.002,170.334 110.169,174 113.5,177.5C 109.5,177.5 105.5,177.5 101.5,177.5C 99.8543,175.854 98.1877,174.188 96.5,172.5C 87.8848,170.922 84.5515,165.922 86.5,157.5 Z"/></g>
<g><path style="opacity:1" fill="#cacaca" d="M 120.5,157.5 C 123.5,157.5 126.5,157.5 129.5,157.5C 129.5,164.167 129.5,170.833 129.5,177.5C 126.5,177.5 123.5,177.5 120.5,177.5C 120.5,170.833 120.5,164.167 120.5,157.5 Z"/></g>
<g><path style="opacity:0.986" fill="#cbcbcb" d="M 148.5,157.5 C 154.833,157.5 161.167,157.5 167.5,157.5C 167.047,158.458 166.381,159.292 165.5,160C 154.718,160.946 149.384,166.779 149.5,177.5C 146.833,177.5 144.167,177.5 141.5,177.5C 141.334,173.154 141.501,168.821 142,164.5C 144.372,162.297 146.539,159.963 148.5,157.5 Z"/></g>
<g><path style="opacity:1" fill="#cbcbcb" d="M 234.5,157.5 C 258.5,157.5 282.5,157.5 306.5,157.5C 300.389,158.933 294.056,159.766 287.5,160C 275.838,160.5 264.171,160.667 252.5,160.5C 252.5,166.167 252.5,171.833 252.5,177.5C 246.5,177.5 240.5,177.5 234.5,177.5C 234.5,170.833 234.5,164.167 234.5,157.5 Z"/></g>
<g><path style="opacity:1" fill="#cacaca" d="M 380.5,157.5 C 386.167,157.5 391.833,157.5 397.5,157.5C 396.833,164.167 396.167,170.833 395.5,177.5C 389.833,177.5 384.167,177.5 378.5,177.5C 378.947,170.808 379.614,164.141 380.5,157.5 Z"/></g>
<g><path style="opacity:1" fill="#cacaca" d="M 422.5,157.5 C 428.833,157.5 435.167,157.5 441.5,157.5C 445.017,163.872 448.017,170.538 450.5,177.5C 444.5,177.5 438.5,177.5 432.5,177.5C 428.989,170.995 425.655,164.328 422.5,157.5 Z"/></g>
<g><path style="opacity:1" fill="#cacaca" d="M 492.5,157.5 C 498.5,157.5 504.5,157.5 510.5,157.5C 508.017,164.462 505.017,171.128 501.5,177.5C 495.5,177.5 489.5,177.5 483.5,177.5C 485.989,170.528 488.989,163.861 492.5,157.5 Z"/></g>
<g><path style="opacity:1" fill="#cacaca" d="M 535.5,157.5 C 541.5,157.5 547.5,157.5 553.5,157.5C 554.167,164.167 554.833,170.833 555.5,177.5C 549.833,177.5 544.167,177.5 538.5,177.5C 537.218,171.005 536.218,164.339 535.5,157.5 Z"/></g>
<g><path style="opacity:1" fill="#c4c4c4" d="M 67.5,177.5 C 71.1667,177.5 74.8333,177.5 78.5,177.5C 84.8705,182.869 90.5371,188.869 95.5,195.5C 91.8333,195.5 88.1667,195.5 84.5,195.5C 78.0799,190.084 72.4132,184.084 67.5,177.5 Z"/></g>
<g><path style="opacity:1" fill="#c4c4c4" d="M 101.5,177.5 C 105.5,177.5 109.5,177.5 113.5,177.5C 116.168,179.336 118.334,181.669 120,184.5C 120.497,182.19 120.663,179.857 120.5,177.5C 123.5,177.5 126.5,177.5 129.5,177.5C 131.39,185.344 129.056,191.344 122.5,195.5C 118.833,195.5 115.167,195.5 111.5,195.5C 112.29,194.206 113.29,193.039 114.5,192C 110.33,186.998 105.996,182.164 101.5,177.5 Z"/></g>
<g><path style="opacity:0.992" fill="#c4c4c4" d="M 141.5,177.5 C 144.167,177.5 146.833,177.5 149.5,177.5C 149.5,183.5 149.5,189.5 149.5,195.5C 146.833,195.5 144.167,195.5 141.5,195.5C 141.5,189.5 141.5,183.5 141.5,177.5 Z"/></g>
<g><path style="opacity:1" fill="#c4c4c4" d="M 234.5,177.5 C 240.5,177.5 246.5,177.5 252.5,177.5C 252.5,183.5 252.5,189.5 252.5,195.5C 246.5,195.5 240.5,195.5 234.5,195.5C 234.5,189.5 234.5,183.5 234.5,177.5 Z"/></g>
<g><path style="opacity:1" fill="#c4c4c4" d="M 378.5,177.5 C 384.167,177.5 389.833,177.5 395.5,177.5C 394.498,183.527 393.498,189.527 392.5,195.5C 386.833,195.5 381.167,195.5 375.5,195.5C 376.318,189.436 377.318,183.436 378.5,177.5 Z"/></g>
<g><path style="opacity:1" fill="#c4c4c4" d="M 432.5,177.5 C 438.5,177.5 444.5,177.5 450.5,177.5C 454.01,183.187 457.01,189.187 459.5,195.5C 453.167,195.5 446.833,195.5 440.5,195.5C 437.287,189.74 434.62,183.74 432.5,177.5 Z"/></g>
<g><path style="opacity:1" fill="#c4c4c4" d="M 483.5,177.5 C 489.5,177.5 495.5,177.5 501.5,177.5C 499.38,183.74 496.713,189.74 493.5,195.5C 487.167,195.5 480.833,195.5 474.5,195.5C 477.533,189.435 480.533,183.435 483.5,177.5 Z"/></g>
<g><path style="opacity:1" fill="#c4c4c4" d="M 538.5,177.5 C 544.167,177.5 549.833,177.5 555.5,177.5C 556.5,183.5 557.5,189.5 558.5,195.5C 552.5,195.5 546.5,195.5 540.5,195.5C 539.366,189.559 538.699,183.559 538.5,177.5 Z"/></g>
<g><path style="opacity:0.992" fill="#c3c3c3" d="M 58.5,195.5 C 52.8333,195.5 47.1667,195.5 41.5,195.5C 40.3295,182.516 45.4962,178.849 57,184.5C 58.3368,188.026 58.8368,191.692 58.5,195.5 Z"/></g>
<g><path style="opacity:0.99" fill="#bebebe" d="M 41.5,195.5 C 47.1667,195.5 52.8333,195.5 58.5,195.5C 63.3303,199.497 67.6636,203.997 71.5,209C 78.0432,207.766 82.0432,210.266 83.5,216.5C 77.8333,216.5 72.1667,216.5 66.5,216.5C 61.8831,211.546 57.2164,206.546 52.5,201.5C 47.5765,201.645 43.9098,199.645 41.5,195.5 Z"/></g>
<g><path style="opacity:1" fill="#bfbfbf" d="M 84.5,195.5 C 88.1667,195.5 91.8333,195.5 95.5,195.5C 98.4639,197.962 101.297,200.629 104,203.5C 106,200.334 108.5,197.668 111.5,195.5C 115.167,195.5 118.833,195.5 122.5,195.5C 118.6,200.908 114.1,205.908 109,210.5C 107.872,212.345 107.372,214.345 107.5,216.5C 104.833,216.5 102.167,216.5 99.5,216.5C 99.6602,214.801 99.4935,213.134 99,211.5C 93.5901,206.595 88.7568,201.262 84.5,195.5 Z"/></g>
<g><path style="opacity:0.985" fill="#bdbdbd" d="M 141.5,195.5 C 144.167,195.5 146.833,195.5 149.5,195.5C 149.664,198.187 149.497,200.854 149,203.5C 145.33,208.336 141.164,212.669 136.5,216.5C 130.833,216.5 125.167,216.5 119.5,216.5C 119.511,214.983 120.177,213.816 121.5,213C 124.424,212.012 127.424,211.346 130.5,211C 133.631,206.867 137.131,203.034 141,199.5C 141.49,198.207 141.657,196.873 141.5,195.5 Z"/></g>
<g><path style="opacity:1" fill="#bebebe" d="M 234.5,195.5 C 240.5,195.5 246.5,195.5 252.5,195.5C 252.5,202.5 252.5,209.5 252.5,216.5C 246.5,216.5 240.5,216.5 234.5,216.5C 234.5,209.5 234.5,202.5 234.5,195.5 Z"/></g>
<g><path style="opacity:1" fill="#bebebe" d="M 375.5,195.5 C 381.167,195.5 386.833,195.5 392.5,195.5C 391.98,202.516 391.313,209.516 390.5,216.5C 384.5,216.5 378.5,216.5 372.5,216.5C 373.741,209.574 374.741,202.574 375.5,195.5 Z"/></g>
<g><path style="opacity:1" fill="#bebebe" d="M 440.5,195.5 C 446.833,195.5 453.167,195.5 459.5,195.5C 461.713,200.928 464.213,206.261 467,211.5C 469.768,206.296 472.268,200.963 474.5,195.5C 480.833,195.5 487.167,195.5 493.5,195.5C 490.403,202.691 487.07,209.691 483.5,216.5C 472.5,216.5 461.5,216.5 450.5,216.5C 446.93,209.691 443.597,202.691 440.5,195.5 Z"/></g>
<g><path style="opacity:1" fill="#bebebe" d="M 540.5,195.5 C 546.5,195.5 552.5,195.5 558.5,195.5C 559.542,202.462 560.209,209.462 560.5,216.5C 554.833,216.5 549.167,216.5 543.5,216.5C 542.269,209.668 541.269,202.668 540.5,195.5 Z"/></g>
<g><path style="opacity:0.989" fill="#bababa" d="M 66.5,216.5 C 72.1667,216.5 77.8333,216.5 83.5,216.5C 84.5094,225.658 80.5094,229.492 71.5,228C 66.7441,225.447 65.0774,221.614 66.5,216.5 Z"/></g>
<g><path style="opacity:1" fill="#b7b7b7" d="M 99.5,216.5 C 102.167,216.5 104.833,216.5 107.5,216.5C 107.334,220.514 107.501,224.514 108,228.5C 112.143,231.919 113.476,236.252 112,241.5C 111.623,242.942 110.79,243.942 109.5,244.5C 105.5,244.5 101.5,244.5 97.5,244.5C 95.1716,242.834 94.1716,240.501 94.5,237.5C 94.3981,233.704 95.8981,230.704 99,228.5C 99.4988,224.514 99.6655,220.514 99.5,216.5 Z"/></g>
<g><path style="opacity:0.987" fill="#b9b9b9" d="M 119.5,216.5 C 125.167,216.5 130.833,216.5 136.5,216.5C 137.746,224.42 134.579,229.42 127,231.5C 120.961,230.96 117.794,227.626 117.5,221.5C 117.436,219.443 118.102,217.777 119.5,216.5 Z"/></g>
<g><path style="opacity:1" fill="#b8b8b8" d="M 234.5,216.5 C 240.5,216.5 246.5,216.5 252.5,216.5C 252.5,225.833 252.5,235.167 252.5,244.5C 246.5,244.5 240.5,244.5 234.5,244.5C 234.5,235.167 234.5,225.833 234.5,216.5 Z"/></g>
<g><path style="opacity:1" fill="#b8b8b8" d="M 372.5,216.5 C 378.5,216.5 384.5,216.5 390.5,216.5C 389.075,225.811 387.741,235.144 386.5,244.5C 380.5,244.5 374.5,244.5 368.5,244.5C 370.295,235.27 371.628,225.936 372.5,216.5 Z"/></g>
<g><path style="opacity:1" fill="#b8b8b8" d="M 450.5,216.5 C 461.5,216.5 472.5,216.5 483.5,216.5C 479.66,226.173 475.327,235.507 470.5,244.5C 468.167,244.5 465.833,244.5 463.5,244.5C 458.657,235.476 454.323,226.142 450.5,216.5 Z"/></g>
<g><path style="opacity:1" fill="#b8b8b8" d="M 543.5,216.5 C 549.167,216.5 554.833,216.5 560.5,216.5C 562.295,225.729 563.628,235.062 564.5,244.5C 558.5,244.5 552.5,244.5 546.5,244.5C 545.336,235.185 544.336,225.852 543.5,216.5 Z"/></g>
<g><path style="opacity:1" fill="#b4b5b4" d="M 97.5,244.5 C 101.5,244.5 105.5,244.5 109.5,244.5C 109.389,245.117 109.056,245.617 108.5,246C 105.167,246.667 101.833,246.667 98.5,246C 97.944,245.617 97.6107,245.117 97.5,244.5 Z"/></g>
<g><path style="opacity:1" fill="#b4b5b4" d="M 234.5,244.5 C 240.5,244.5 246.5,244.5 252.5,244.5C 249.913,245.816 246.913,246.483 243.5,246.5C 240.087,246.483 237.087,245.816 234.5,244.5 Z"/></g>
<g><path style="opacity:1" fill="#b4b5b4" d="M 368.5,244.5 C 374.5,244.5 380.5,244.5 386.5,244.5C 386.5,245.5 386.5,246.5 386.5,247.5C 380.5,247.5 374.5,247.5 368.5,247.5C 368.5,246.5 368.5,245.5 368.5,244.5 Z"/></g>
<g><path style="opacity:1" fill="#b4b5b4" d="M 463.5,244.5 C 465.833,244.5 468.167,244.5 470.5,244.5C 470.5,245.5 470.5,246.5 470.5,247.5C 468.473,247.662 466.473,247.495 464.5,247C 463.748,246.329 463.414,245.496 463.5,244.5 Z"/></g>
<g><path style="opacity:1" fill="#b4b5b4" d="M 546.5,244.5 C 552.5,244.5 558.5,244.5 564.5,244.5C 565.404,245.209 565.737,246.209 565.5,247.5C 559.167,247.5 552.833,247.5 546.5,247.5C 546.5,246.5 546.5,245.5 546.5,244.5 Z"/></g>
</svg>